<svg width="128" height="128" viewBox="0 0 128 128" xmlns="http://www.w3.org/2000/svg">
  <!-- Browser window frame -->
  <rect x="16" y="16" width="96" height="96" rx="8" fill="#f8f9fa" stroke="#6c757d" stroke-width="2"/>
  
  <!-- Browser tabs -->
  <rect x="20" y="20" width="24" height="8" rx="4" fill="#6c757d"/>
  <rect x="48" y="20" width="24" height="8" rx="4" fill="#dee2e6"/>
  <rect x="76" y="20" width="24" height="8" rx="4" fill="#dee2e6"/>
  
  <!-- Address bar -->
  <rect x="20" y="36" width="88" height="12" rx="6" fill="#e9ecef" stroke="#adb5bd" stroke-width="1"/>
  
  <!-- Navigation buttons -->
  <circle cx="26" cy="42" r="3" fill="#6c757d"/>
  <circle cx="32" cy="42" r="3" fill="#6c757d"/>
  <circle cx="38" cy="42" r="3" fill="#6c757d"/>
  
  <!-- Web content area -->
  <rect x="20" y="56" width="88" height="52" rx="4" fill="#ffffff" stroke="#dee2e6" stroke-width="1"/>
  
  <!-- Content lines (representing web content) -->
  <rect x="28" y="64" width="72" height="4" rx="2" fill="#e9ecef"/>
  <rect x="28" y="72" width="56" height="4" rx="2" fill="#e9ecef"/>
  <rect x="28" y="80" width="64" height="4" rx="2" fill="#e9ecef"/>
  <rect x="28" y="88" width="48" height="4" rx="2" fill="#e9ecef"/>
  <rect x="28" y="96" width="60" height="4" rx="2" fill="#e9ecef"/>
  
  <!-- Web symbol in center -->
  <circle cx="64" cy="64" r="16" fill="none" stroke="#007bff" stroke-width="2" opacity="0.8"/>
  <path d="M 64 48 L 64 80 M 48 64 L 80 64" stroke="#007bff" stroke-width="2" stroke-linecap="round" opacity="0.8"/>
</svg>
